<svg id="settings" xmlns="http://www.w3.org/2000/svg" width="24" height="24" viewBox="0 0 24 24">
  <rect id="Boundary" width="24" height="24" fill="none"/>
  <path id="_Color" data-name=" ↳Color" d="M10.851,19h-3.7a.472.472,0,0,1-.463-.4l-.347-2.517a6.723,6.723,0,0,1-1.562-.927l-2.3.95a.5.5,0,0,1-.16.027.454.454,0,0,1-.407-.241L.055,12.6a.5.5,0,0,1,.116-.606l1.956-1.568a5.744,5.744,0,0,1,.012-1.852L.182,7.006A.468.468,0,0,1,.066,6.4L1.918,3.111a.461.461,0,0,1,.4-.246.442.442,0,0,1,.164.032l2.3.95A6.939,6.939,0,0,1,6.35,2.921L6.7.4A.456.456,0,0,1,7.148,0h3.7a.466.466,0,0,1,.463.4l.347,2.517a6.751,6.751,0,0,1,1.562.926l2.3-.95a.5.5,0,0,1,.16-.027.454.454,0,0,1,.407.241L17.945,6.4a.5.5,0,0,1-.116.606L15.873,8.574a5.962,5.962,0,0,1,.069.926,7.831,7.831,0,0,1-.058.926l1.932,1.568a.469.469,0,0,1,.116.606l-1.851,3.289a.461.461,0,0,1-.4.246.443.443,0,0,1-.164-.032l-2.3-.95a6.942,6.942,0,0,1-1.562.927L11.3,18.6A.444.444,0,0,1,10.851,19ZM9,5.937a3.564,3.564,0,0,0,0,7.125A3.564,3.564,0,0,0,9,5.937Z" transform="translate(3 2.5)" fill="#4f2d80"/>
</svg>
