<svg id="settings_black_24dp" xmlns="http://www.w3.org/2000/svg" width="29.038" height="29.038" viewBox="0 0 29.038 29.038">
  <path id="Path_7258" data-name="Path 7258" d="M0,0H29.038V29.038H0Z" fill="none"/>
  <path id="Path_7259" data-name="Path 7259" d="M22.6,15.153a8.559,8.559,0,0,0,.073-1.137,6.989,6.989,0,0,0-.085-1.137l2.456-1.912a.594.594,0,0,0,.145-.738L22.865,6.211a.591.591,0,0,0-.714-.266L19.26,7.107A8.547,8.547,0,0,0,17.3,5.969L16.864,2.9a.585.585,0,0,0-.581-.5H11.637a.573.573,0,0,0-.569.5l-.436,3.073a8.736,8.736,0,0,0-1.96,1.137L5.781,5.945a.578.578,0,0,0-.714.266L2.756,10.228a.55.55,0,0,0,.145.738l2.456,1.912a6.731,6.731,0,0,0-.024,2.275L2.877,17.064a.594.594,0,0,0-.145.738l2.323,4.017a.591.591,0,0,0,.714.266l2.892-1.162a8.547,8.547,0,0,0,1.96,1.137l.436,3.073a.6.6,0,0,0,.581.5h4.646a.564.564,0,0,0,.569-.5l.436-3.073a8.3,8.3,0,0,0,1.96-1.137l2.892,1.162a.578.578,0,0,0,.714-.266L25.176,17.8a.56.56,0,0,0-.145-.738ZM13.96,18.371a4.356,4.356,0,1,1,4.356-4.356A4.369,4.369,0,0,1,13.96,18.371Z" transform="translate(0.559 0.504)" fill="#4f2d80"/>
</svg>
